/* XPM */
static char *result[] = {
/* columns rows colors chars-per-pixel */
"40 40 125 2 ",
"   c black",
".  c gray12",
"X  c #444444",
"o  c #484848",
"O  c gray35",
"+  c gray37",
"@  c #626262",
"#  c #646464",
"$  c #646565",
"%  c #676767",
"&  c #6A6A6A",
"*  c #6C6D6C",
"=  c gray43",
"-  c #6F6F6F",
";  c gray44",
":  c #727272",
">  c gray45",
",  c #747474",
"<  c #767676",
"1  c gray47",
"2  c #797979",
"3  c #7B7B7B",
"4  c #7C7C7C",
"5  c gray49",
"6  c #7E7E7E",
"7  c gray50",
"8  c #808080",
"9  c #818181",
"0  c gray51",
"q  c #838383",
"w  c #848484",
"e  c #868686",
"r  c gray53",
"t  c gray54",
"y  c #8B8B8B",
"u  c gray55",
"i  c #8D8D8D",
"p  c #8E8E8E",
"a  c #909090",
"s  c gray57",
"d  c #929292",
"f  c #939393",
"g  c #959595",
"h  c #989898",
"j  c #9A9A9A",
"k  c #9B9B9B",
"l  c gray61",
"z  c #9D9D9D",
"x  c gray62",
"c  c #9F9F9F",
"v  c #A0A0A0",
"b  c gray63",
"n  c #A1A1A2",
"m  c #A4A4A4",
"M  c #A5A5A5",
"N  c gray65",
"B  c gray66",
"V  c #AAAAAA",
"C  c gray67",
"Z  c #ACACAC",
"A  c gray68",
"S  c #B1B1B1",
"D  c gray70",
"F  c #B4B4B4",
"G  c #B7B7B7",
"H  c gray72",
"J  c #B9B9B9",
"K  c #BBBBBB",
"L  c #BCBCBC",
"P  c gray74",
"I  c gray",
"U  c #C0C0C0",
"Y  c #C1C1C1",
"T  c gray76",
"R  c #C3C3C3",
"E  c gray77",
"W  c #C6C6C6",
"Q  c gray78",
"!  c gray79",
"~  c #CACACA",
"^  c #CBCBCB",
"/  c #CDCDCD",
"(  c #D0D0D0",
")  c gray82",
"_  c #D2D2D2",
"`  c LightGray",
"'  c gray83",
"]  c #D5D5D4",
"[  c #D5D5D5",
"{  c #D5D6D5",
"}  c gray84",
"|  c #D7D7D7",
" . c #D8D8D8",
".. c gray85",
"X. c gray86",
"o. c #DDDDDD",
"O. c gray87",
"+. c #DFDFDF",
"@. c gray88",
"#. c #E6E6E6",
"$. c #E7E7E7",
"%. c #E9E9E9",
"&. c #EAEAEA",
"*. c gray92",
"=. c #ECECEC",
"-. c #EEEEEE",
";. c #EFEFEF",
":. c #F3F3F3",
">. c #F4F4F4",
",. c #F4F5F4",
"<. c gray96",
"1. c #F5F6F6",
"2. c #F6F6F6",
"3. c #F6F7F6",
"4. c #F8F8F8",
"5. c #F9F9F9",
"6. c gray98",
"7. c #FBFBFB",
"8. c gray99",
"9. c #FCFDFC",
"0. c #FDFDFD",
"q. c #FDFEFD",
"w. c #FEFEFE",
"e. c #FEFFFE",
"r. c white",
/* pixels */
"7 x z x x x x x x x x x x x x x x x x x x x x x x x x x x x x x x x x x z x z y ",
"k r.r.r.r.r.r.r.r.r.r.r.r.r.r.r.r.r.r.r.r.r.r.r.r.r.r.r.r.r.r.r.r.r.r.r.r.e.r.k ",
"v r.0.r.r.r.r.r.r.r.r.r.r.r.r.r.r.r.r.r.r.r.r.r.r.r.r.r.r.r.r.r.r.r.r.r.r.8.r.M ",
"z r.0.w.w.w.w.w.w.w.w.w.w.w.w.w.w.w.w.w.w.w.w.w.w.w.w.w.w.w.w.w.w.w.w.w.w.7.r.b ",
"x r.w.r.r.r.r.r.r.r.r.r.r.r.r.r.r.r.r.r.r.r.r.r.r.r.r.r.r.r.r.r.r.r.r.r.r.8.r.n ",
"x r.0.r.r.r.r.r.r.r.r.r.r.r.r.r.r.r.r.r.r.r.r.r.r.r.r.r.r.r.r.r.r.r.r.r.r.8.r.b ",
"x r.q.r.r.r.r.r.r.r.r.r.r.r.r.r.r.r.r.w.q.0.0.0.w.r.r.r.r.r.r.r.r.r.r.r.r.8.r.b ",
"x r.0.r.r.r.r.r.w.0.w.0.0.8.8.8.0.0.w.r.r.r.r.r.r.w.r.r.r.r.r.r.r.r.r.r.r.8.r.b ",
"x r.q.r.r.r.r.r.r.r.r.r.r.r.r.r.r.r.r.r.r.r.r.r.r.r.w.r.r.r.r.r.r.r.r.r.r.8.r.b ",
"x r.q.r.r.r.r.r.w.r.r.r.7.,.$.;.%.~ ^ L N j h l ^ 5.r.w.r.r.r.r.r.r.r.r.r.8.r.b ",
"x r.q.r.r.r.r.r.-.A J g u 0 * 6 , $ 6 t e r b z o / r.8.r.r.r.r.r.r.r.r.r.8.r.b ",
"x r.q.r.r.r.r.r.1.D 8 d F T o.B # <.9.r.r.r.r.r.i S r.w.w.r.r.r.r.r.r.r.r.8.r.b ",
"x r.q.r.r.r.r.w.r.r.r.r.r.r.r._ 4 r.r.w.r.0.r.:.2 U r.0.r.r.r.r.r.r.r.r.r.8.r.b ",
"x r.q.r.r.r.r.r.w.0.r.r.7.7.r.E < 0.w.7.w.6.r.=.- ( r.8.r.r.r.r.r.r.r.r.r.8.r.b ",
"x r.q.r.r.r.r.r.r.w.0.w.w.r.r.R 7 r.r.0.r.8.r.#.% { r.8.r.r.r.r.r.r.r.r.r.8.r.b ",
"x r.q.r.r.r.r.r.r.r.r.r.w.w.r.! + 5.r.8.r.7.r.o.X  .r.7.r.r.r.r.r.r.r.r.r.8.r.b ",
"x r.q.r.r.r.r.r.r.r.r.r.r.w.r.#.c 2.r.0.r.0.r.>.! -.r.0.r.r.r.r.r.r.r.r.r.8.r.b ",
"x r.q.r.r.r.r.r.r.w.7.7.7.7.8.4.:.6.8.7.8.8.6.w.r.r.w.r.r.r.r.r.r.r.r.r.r.8.r.b ",
"x r.q.r.r.r.r.r.w.r.r.r.r.r.r.r.r.r.r.r.r.r.r.r.r.w.w.r.r.r.r.r.r.r.r.r.r.8.r.b ",
"x r.q.r.r.r.r.r.r.3.#.-.*.=.*.$.&.-.-.&.>.>.-.:.r.r.r.r.w.r.r.r.r.r.r.r.r.8.r.b ",
"x r.q.r.r.r.r.r.r.$.O > < 1 ; & 6 > 3 5 3 1 2 : d f G 7.r.0.r.r.r.r.r.r.r.8.r.b ",
"x r.q.r.r.r.r.r.r.5. ...O.+.X.X.O...O.@.' ] X.| R a L 0.r.0.r.r.r.r.r.r.r.8.r.b ",
"x r.q.r.r.r.r.r.w.r.r.r.r.r.r.r.r.r.r.r.r.r.r.r.r.r.r.r.r.r.r.r.r.r.r.r.r.8.r.b ",
"x r.q.r.r.r.r.r.r.w.0.8.8.r.r.r.r.r.r.r.r.r.r.0.w.r.r.r.r.r.r.r.r.r.r.r.r.8.r.b ",
"x r.q.r.r.r.r.r.r.r.w.r.r.X.F J v p v k 3 , W r.w.8.w.r.r.r.r.r.r.r.r.r.r.8.r.b ",
"x r.q.r.r.r.r.r.r.r.w.r.r.` . = Z V I J P H ` r.r.w.r.r.r.r.r.r.r.r.r.r.r.8.r.b ",
"x r.q.r.r.r.r.r.r.r.r.w.r.r.V e r.0.w.w.r.r.r.r.r.r.r.r.r.r.r.r.r.r.r.r.r.8.r.b ",
"x r.q.r.r.r.r.r.r.r.r.w.r.r.J u r.r.r.r.r.r.r.w.r.r.r.r.r.r.r.r.r.r.r.r.r.8.r.b ",
"x r.q.r.r.r.r.r.r.r.r.w.r.r.Y @ ) Q E W A M *.r.0.r.r.r.r.r.r.r.r.r.r.r.r.8.r.b ",
"x r.q.r.r.r.r.r.r.r.r.w.r.r.H   : q w h f k $.r.0.r.r.r.r.r.r.r.r.r.r.r.r.8.r.b ",
"x r.q.r.r.r.r.r.r.r.r.0.r.w.d h r.r.r.r.0.8.r.r.w.r.r.r.r.r.r.r.r.r.r.r.r.8.r.b ",
"x r.q.r.r.r.r.r.r.r.r.0.r.5.2 9 [ C 9 2 = X s ;.r.0.r.r.r.r.r.r.r.r.r.r.r.8.r.b ",
"x r.q.r.r.r.r.r.r.r.r.w.r.r.o.a 9 h K } ' / [ >.r.w.r.r.r.r.r.r.r.r.r.r.r.8.r.b ",
"x r.q.r.r.r.r.r.r.r.r.r.r.r.r.r.0.r.r.r.r.r.r.r.w.r.r.r.r.r.r.r.r.r.r.r.r.8.r.b ",
"x r.0.r.r.r.r.r.r.r.r.r.r.r.r.r.r.r.r.r.r.r.r.r.r.r.r.r.r.r.r.r.r.r.r.r.r.8.r.b ",
"x r.0.r.r.r.r.r.r.r.r.r.r.r.r.w.w.w.w.r.r.r.r.r.r.r.r.r.r.r.r.r.r.r.r.r.r.8.r.b ",
"x r.w.r.r.r.r.r.r.r.r.r.r.r.r.r.r.r.r.r.r.r.r.r.r.r.r.r.r.r.r.r.r.r.r.r.r.8.r.b ",
"z r.7.0.0.0.0.0.0.0.0.0.0.0.0.0.0.0.0.0.0.0.0.0.0.0.0.0.0.0.0.0.0.0.0.0.0.6.r.b ",
"v r.r.r.r.r.r.r.r.r.r.r.r.r.r.r.r.r.r.r.r.r.r.r.r.r.r.r.r.r.r.r.r.r.r.r.r.r.r.m ",
"8 C C C C C C C C C C C C C C C C C C C C C C C C C C C C C C C C C C C C V A 3 "
};
