/* XPM */
static char *result[] = {
/* columns rows colors chars-per-pixel */
"40 40 133 2 ",
"   c black",
".  c #181818",
"X  c gray20",
"o  c #3F3F3F",
"O  c gray27",
"+  c gray29",
"@  c #555555",
"#  c #5A5A5A",
"$  c #5F5F5F",
"%  c #626262",
"&  c gray39",
"*  c gray40",
"=  c DimGray",
"-  c #6A6A6A",
";  c gray42",
":  c #6B6C6B",
">  c #6C6C6C",
",  c #6D6D6D",
"<  c gray43",
"1  c #6F6F6F",
"2  c gray44",
"3  c #717171",
"4  c #727272",
"5  c gray47",
"6  c #797979",
"7  c gray48",
"8  c #7C7C7C",
"9  c #7E7E7E",
"0  c #818181",
"q  c #868686",
"w  c gray53",
"e  c #898989",
"r  c gray54",
"t  c #8B8B8A",
"y  c #8B8B8B",
"u  c #8D8D8D",
"i  c gray56",
"p  c gray57",
"a  c #929292",
"s  c gray58",
"d  c #959595",
"f  c #979797",
"g  c #989898",
"h  c gray60",
"j  c #9A9A9A",
"k  c #9B9B9B",
"l  c gray61",
"z  c #9D9D9D",
"x  c gray62",
"c  c #9F9F9F",
"v  c #A0A0A0",
"b  c gray63",
"n  c #A2A2A2",
"m  c gray64",
"M  c #A4A4A4",
"N  c #A5A5A5",
"B  c gray65",
"V  c #A7A7A7",
"C  c gray66",
"Z  c #A9A9A9",
"A  c #AAAAAA",
"S  c gray67",
"D  c #ACACAC",
"F  c gray68",
"G  c #AFAFAF",
"H  c gray69",
"J  c #B1B1B1",
"K  c #B2B2B2",
"L  c #B4B4B4",
"P  c #B6B6B6",
"I  c gray72",
"U  c #B9B9B9",
"Y  c gray73",
"T  c gray",
"R  c gray75",
"E  c gray76",
"W  c #C5C5C5",
"Q  c #C6C6C6",
"!  c gray78",
"~  c #C8C8C8",
"^  c gray79",
"/  c #C9CAC9",
"(  c #CACACA",
")  c #CBCBCB",
"_  c #CDCDCD",
"`  c #CECECE",
"'  c gray81",
"]  c #D0D0D0",
"[  c gray82",
"{  c #D2D2D2",
"}  c gray83",
"|  c gray84",
" . c #D7D7D7",
".. c #D8D8D8",
"X. c gray86",
"o. c gainsboro",
"O. c #DFDFDF",
"+. c gray88",
"@. c #E1E1E1",
"#. c #E2E2E2",
"$. c gray89",
"%. c #E4E4E4",
"&. c gray90",
"*. c #E7E7E7",
"=. c gray91",
"-. c #E9E9E9",
";. c #EAEAEA",
":. c gray92",
">. c #ECECEC",
",. c gray93",
"<. c #EEEEEE",
"1. c #EFEFEF",
"2. c gray94",
"3. c #F1F1F1",
"4. c #F1F1F2",
"5. c gray95",
"6. c #F3F3F3",
"7. c #F4F4F4",
"8. c gray96",
"9. c #F6F6F6",
"0. c #F8F8F8",
"q. c #F9F9F9",
"w. c gray98",
"e. c #FBFBFB",
"r. c gray99",
"t. c #FDFCFD",
"y. c #FDFDFD",
"u. c #FDFEFD",
"i. c #FDFDFE",
"p. c #FEFDFE",
"a. c #FEFEFE",
"s. c #FEFFFE",
"d. c white",
/* pixels */
"4 v l z z z z z z z z z z z z z z z z z z z z z z z z z z z z z z z z z z c h t ",
"B d.d.d.d.d.d.d.d.d.d.d.d.d.d.d.d.d.d.d.d.d.d.d.d.d.d.d.d.d.d.d.d.d.d.d.d.d.d.j ",
"M d.e.y.y.y.y.y.y.y.y.y.y.y.y.y.y.y.y.y.y.y.y.y.y.y.y.y.y.y.y.y.y.y.y.y.y.e.d.c ",
"M d.y.d.d.d.d.d.d.d.d.d.d.d.d.d.d.d.d.d.d.d.d.d.d.d.d.d.d.d.d.d.d.d.d.d.a.y.d.z ",
"M d.y.d.d.d.d.d.d.d.d.d.d.d.d.d.d.d.d.d.d.d.d.d.d.d.d.d.d.d.d.d.d.d.d.d.d.y.d.z ",
"M d.y.d.d.d.d.d.d.d.d.d.d.d.d.d.d.d.d.d.d.d.d.d.d.d.d.d.d.d.d.d.d.d.d.d.d.y.d.z ",
"M d.y.d.d.d.d.d.d.d.d.d.d.d.d.d.d.d.d.d.d.d.d.d.a.d.d.d.d.d.d.d.d.d.d.d.d.y.d.z ",
"M d.y.d.d.d.d.d.d.d.d.d.d.d.d.d.d.d.d.d.d.d.d.d.d.d.d.d.d.d.d.d.d.d.d.d.d.y.d.z ",
"M d.y.d.d.d.d.d.d.d.d.a.r.y.r.r.y.a.d.d.d.d.a.d.d.d.a.d.d.d.d.d.d.d.d.d.d.y.d.z ",
"M d.y.d.d.d.d.d.d.d.d.d.d.d.d.d.d.d.a.d.d.y.d.6.} 9.d.y.d.d.d.d.d.d.d.d.d.y.d.z ",
"M d.y.d.d.d.d.d.d.d.d.9.8.8.1.,.,.y.d.a.d.w.d.3.5 ` d.r.d.d.d.d.d.d.d.d.d.y.d.z ",
"M d.y.d.d.d.d.d.a.d.d.Y < i 2 ; p 2.d.r.d.d.d.d.m B d.d.a.d.d.d.d.d.d.d.d.y.d.z ",
"M d.y.d.d.d.d.d.a.d.d.v O } / [ $.q.a.r.w.8.d.d.x M d.d.a.d.d.d.d.d.d.d.d.y.d.z ",
"M d.y.d.d.d.d.d.a.d.d.S c d.d.d.d.d.d.d.e.S O.d.g Y d.y.a.d.d.d.d.d.d.d.d.y.d.z ",
"M d.y.d.d.d.d.d.a.d.d.W s d.d.d.d.d.t.9.5.q U d.a U d.y.d.d.d.d.d.d.d.d.d.y.d.z ",
"M d.y.d.d.d.d.d.a.d.d.E 8 d.,.-.r.e.k # _ N T d.g D d.d.a.d.d.d.d.d.d.d.d.y.d.z ",
"M d.y.d.d.d.d.d.a.d.d.H   w 9 = R w.H U 4.k G d.C n d.d.y.d.d.d.d.d.d.d.d.y.d.z ",
"M d.y.d.d.d.d.d.a.d.d.K 1 I ` ' o.a.d.d.d.y L d.j x d.d.y.d.d.d.d.d.d.d.d.y.d.z ",
"M d.y.d.d.d.d.d.a.d.d.b Z d.d.d.d.d.e.d.y.u H d.a S d.d.a.d.d.d.d.d.d.d.d.y.d.z ",
"M d.y.d.d.d.d.d.a.d.a.u P d.=.{ ! 7.d.y.d.' Q d.x J d.a.a.d.d.d.d.d.d.d.d.y.d.z ",
"M d.y.d.d.d.d.d.a.d.d.F + d & 3 0 $.d.e.d.y.r.d.g S d.d.a.d.d.d.d.d.d.d.d.y.d.z ",
"M d.y.d.d.d.d.d.d.d.d.<.V f Q :.3.e.d.d.a.d.d.d.k f d.d.y.d.d.d.d.d.d.d.d.y.d.z ",
"M d.y.d.d.d.d.d.d.d.d.d.d.d.d.d.d.d.d.d.d.a.y.d.%.] r.d.a.d.d.d.d.d.d.d.d.y.d.z ",
"M d.y.d.d.d.d.d.d.d.d.a.d.d.y.0.q.w.e.e.e.r.w.e.d.d.y.d.d.d.d.d.d.d.d.d.d.y.d.z ",
"M d.y.d.d.d.d.d.d.d.d.d.y.y.d.d.d.d.d.d.d.d.d.d.d.d.d.d.d.d.d.d.d.d.d.d.d.y.d.z ",
"M d.y.d.d.d.d.d.d.d.d.d.d.d.9.>.<.&.*.@.=.:.~ ..d.d.a.d.d.d.d.d.d.d.d.d.d.y.d.z ",
"M d.y.d.d.d.d.d.d.d.d.a.d.d.| o * > , % 7 q $ @ [ d.y.d.d.d.d.d.d.d.d.d.d.y.d.z ",
"M d.y.d.d.d.d.d.d.d.d.a.d.d.]   ` 1.#.=.;.1.*.6 P d.y.a.d.d.d.d.d.d.d.d.d.y.d.z ",
"M d.y.d.d.d.d.d.d.d.d.d.y.d.%.: ;.d.d.d.d.d.2.- ) d.r.d.d.d.d.d.d.d.d.d.d.y.d.z ",
"M d.y.d.d.d.d.d.d.d.d.d.y.d.6.q X.d.7.w.9.d. .3 =.d.e.d.d.d.d.d.d.d.d.d.d.y.d.z ",
"M d.y.d.d.d.d.d.d.d.d.d.u.d.d.A n d.d.d.d.d.( a a.d.r.d.d.d.d.d.d.d.d.d.d.y.d.z ",
"M d.y.d.d.d.d.d.d.d.d.d.d.a.d.:.d Y ^ D n r X . +.d.r.d.d.d.d.d.d.d.d.d.d.y.d.z ",
"M d.y.d.d.d.d.d.d.d.d.d.d.d.a.d.>.w , y v R  .) >.d.a.d.d.d.d.d.d.d.d.d.d.y.d.z ",
"M d.y.d.d.d.d.d.d.d.d.d.d.d.a.d.d.a.w.a.d.d.d.d.d.a.d.d.d.d.d.d.d.d.d.d.d.y.d.z ",
"M d.y.d.d.d.d.d.d.d.d.d.d.d.d.a.d.d.d.d.d.d.d.d.d.d.d.d.d.d.d.d.d.d.d.d.d.y.d.z ",
"M d.y.d.d.d.d.d.d.d.d.d.d.d.d.d.d.a.a.a.a.a.d.a.d.d.d.d.d.d.d.d.d.d.d.d.s.y.d.z ",
"M d.y.d.d.d.d.d.d.d.d.d.d.d.d.d.d.d.d.d.d.d.d.d.d.d.d.d.d.d.d.d.d.d.d.d.d.y.d.z ",
"M d.r.a.y.u.p.u.a.a.a.y.a.a.y.y.i.i.y.i.u.y.i.a.i.y.a.a.a.u.a.u.y.a.y.a.y.r.d.x ",
"m d.d.d.d.d.d.d.d.d.d.d.d.d.d.d.d.d.d.d.d.d.d.d.d.d.d.d.d.d.d.d.d.d.d.d.d.d.d.k ",
"0 x z z z z z z z z z z z z z z z z z z z z z z z z z z z z z z z z z z z c j e "
};
