/* XPM */
static char *result[] = {
/* columns rows colors chars-per-pixel */
"40 40 119 2 ",
"   c #2D2D2D",
".  c gray20",
"X  c #414141",
"o  c gray27",
"O  c #4B4B4B",
"+  c gray34",
"@  c #5B5B5B",
"#  c gray36",
"$  c #5F5F5F",
"%  c #626262",
"&  c gray39",
"*  c #686868",
"=  c DimGray",
"-  c #6C6C6C",
";  c #6D6D6D",
":  c #6F6F6F",
">  c gray44",
",  c #727272",
"<  c gray45",
"1  c gray46",
"2  c #777777",
"3  c gray47",
"4  c #797979",
"5  c #7B7A7B",
"6  c #7B7B7B",
"7  c #7E7E7E",
"8  c gray50",
"9  c #818181",
"0  c #838383",
"q  c #868686",
"w  c #888888",
"e  c #898989",
"r  c #8B8B8B",
"t  c #8E8E8E",
"y  c #8F8E8E",
"u  c gray56",
"i  c #909090",
"p  c gray57",
"a  c #929292",
"s  c #939393",
"d  c #959595",
"f  c gray59",
"g  c #989898",
"h  c gray60",
"j  c #9B9B9B",
"k  c gray61",
"l  c #9D9D9D",
"z  c gray62",
"x  c #9F9F9F",
"c  c #A0A0A0",
"v  c gray63",
"b  c #A2A2A2",
"n  c gray64",
"m  c #A5A5A5",
"M  c gray65",
"N  c #A7A7A7",
"B  c gray66",
"V  c #A9A9A9",
"C  c #AAAAAA",
"Z  c #AAABAB",
"A  c gray67",
"S  c gray68",
"D  c #AEAEAE",
"F  c #AFAFAF",
"G  c #B2B2B2",
"H  c gray70",
"J  c gray72",
"K  c #B9B9B9",
"L  c #BCBCBC",
"P  c gray74",
"I  c gray",
"U  c gray75",
"Y  c #C1C1C1",
"T  c gray78",
"R  c #CACACA",
"E  c gray80",
"W  c LightGray",
"Q  c gray83",
"!  c #D5D5D5",
"~  c gray84",
"^  c #D7D7D7",
"/  c #D9D9D8",
"(  c #D9D8D9",
")  c gray85",
"_  c #DADADA",
"`  c gray86",
"'  c gray87",
"]  c #DFDFDF",
"[  c #E1E1E1",
"{  c #E2E2E2",
"}  c gray89",
"|  c #E4E4E4",
" . c #E6E6E6",
".. c #E7E7E7",
"X. c gray91",
"o. c #EAEAEA",
"O. c gray92",
"+. c #ECECEC",
"@. c gray93",
"#. c #EFEFEF",
"$. c #F1F1F0",
"%. c #F1F1F1",
"&. c gray95",
"*. c #F4F4F4",
"=. c #F6F6F6",
"-. c gray97",
";. c #F8F8F8",
":. c #F9F9F9",
">. c gray98",
",. c #FBFBFB",
"<. c gray99",
"1. c #FCFDFC",
"2. c #FDFDFD",
"3. c #FDFEFD",
"4. c #FEFEFE",
"5. c #FEFFFE",
"6. c #FFFFFE",
"7. c #FEFEFF",
"8. c white",
/* pixels */
": c k l l l l l l l l l l l l l l l l l l l l l l l l l l l l l l l l l k z j 0 ",
"V 8.8.8.8.8.8.8.8.8.8.8.8.8.8.8.8.8.8.8.8.8.8.8.8.8.8.8.8.8.8.8.8.8.8.8.8.8.8.x ",
"M 8.,.2.2.2.2.2.2.2.2.2.2.2.2.2.2.2.2.2.2.2.2.2.2.2.2.2.2.2.2.2.2.2.2.2.<.,.8.b ",
"M 8.2.8.8.8.8.8.8.8.8.8.8.8.8.8.8.8.8.8.8.8.8.8.8.8.8.8.8.8.8.8.8.8.8.8.4.2.8.c ",
"N 8.2.8.8.8.8.8.8.8.8.8.8.8.8.8.8.8.8.8.8.8.8.8.8.8.8.8.8.8.8.8.8.8.8.8.8.2.8.c ",
"N 8.2.8.8.8.8.8.8.8.8.8.8.8.8.8.8.8.8.8.8.8.8.8.8.8.8.8.8.8.8.8.8.8.8.8.4.2.8.c ",
"N 8.2.8.8.8.8.8.8.8.8.2.<.<.<.1.<.<.4.8.8.8.8.8.4.4.8.8.8.8.8.8.8.8.8.8.4.2.8.c ",
"N 8.2.8.8.8.8.8.8.8.8.8.8.8.8.8.8.8.8.4.8.8.8.4.8.8.4.8.8.8.8.8.8.8.8.8.4.2.8.c ",
"N 8.2.8.8.8.8.8.8.8.4.*.%.@.O. .| #.2.8.4.8.8.8...O.8.4.8.8.8.8.8.8.8.8.4.2.8.c ",
"N 8.2.8.8.8.8.8.4.8.<.S 3 5 > - ; 2 I 8.4.2.8.8.A z 8.8.4.8.8.8.8.8.8.8.4.2.8.c ",
"N 8.2.8.8.8.8.8.8.8.8.{ E ! ~ ` X.Y +  .8.>.8.8.C w 8.8.2.8.8.8.8.8.8.8.4.2.8.c ",
"N 8.2.8.8.8.8.8.8.5.8.8.8.8.8.8.8.] $ X.8.>.8.8.B d 8.8.2.8.8.8.8.8.8.8.4.2.8.c ",
"N 8.2.8.8.8.8.8.8.8.8.,.>.,.:.4.<.a e 8.4.2.8.8.M y 8.8.2.8.8.8.8.8.8.8.4.2.8.c ",
"N 8.2.8.8.8.8.8.8.8.8.8.8.8.4.8.%.& H 8.<.2.8.8.b s 8.8.2.8.8.8.8.8.8.8.4.2.8.c ",
"N 8.2.8.8.8.8.8.8.8.8.8.8.4.8.8.E X o.8.<.4.8.8.m c 8.8.4.8.8.8.8.8.8.8.4.2.8.c ",
"N 8.2.8.8.8.8.8.8.8.8.8.8.2.8.8.f u 8.2.4.2.8.8.a k 8.8.4.8.8.8.8.8.8.8.4.2.8.c ",
"N 8.2.8.8.8.8.8.8.8.8.8.8.2.8.%., R 8.>.8.2.8.8.p F 8.2.4.8.8.8.8.8.8.8.4.2.8.c ",
"N 8.2.8.8.8.8.8.8.8.8.8.8.4.8.'   [ 8.,.8.2.8.2.i G 8.2.4.8.8.8.8.8.8.8.4.2.8.c ",
"N 8.2.8.8.8.8.8.8.8.8.8.8.4.8.{ 9 O.8.:.<.;.8.<.q m 8.4.4.8.8.8.8.8.8.8.4.2.8.c ",
"N 8.2.8.8.8.8.8.8.8.8.8.8.8.8.<.%.-.6.8.8.8.8.8.~ ( 8.8.4.8.8.8.8.8.8.8.4.2.8.c ",
"N 8.2.8.8.8.8.8.8.8.8.8.8.8.4.8.8.8.8.8.$.} ' *.8.8.3.8.8.8.8.8.8.8.8.8.4.2.8.c ",
"N 8.2.8.8.8.8.8.8.8.8.8.8.4.8.8.| K z 3 < * O 1 [ 8.2.8.8.8.8.8.8.8.8.8.4.2.8.c ",
"N 8.2.8.8.8.8.8.8.8.8.8.8.4.8.8.[ t t J ) [ | u f 8.8.2.8.8.8.8.8.8.8.8.4.2.8.c ",
"N 8.2.8.8.8.8.8.8.8.8.8.8.8.8.8.<.:.1.8.8.8.8.J r 8.8.2.8.8.8.8.8.8.8.8.4.2.8.c ",
"N 8.2.8.8.8.8.8.8.8.8.8.8.8.4.4.8.8.8.8.4.8.4.0 M 8.4.4.8.8.8.8.8.8.8.8.4.2.8.c ",
"N 8.2.8.8.8.8.8.8.8.8.8.8.4.8.8.=.8.8.8.>.<.+.7 U 8.<.8.8.8.8.8.8.8.8.8.4.2.8.c ",
"N 8.2.8.8.8.8.8.8.8.8.8.8.4.8.+.4 2 u % = # # L ;.8.4.8.8.8.8.8.8.8.8.8.4.2.8.c ",
"N 8.2.8.8.8.8.8.8.8.8.8.2.8.;.g D ` Y P R ^ W &.8.2.8.8.8.8.8.8.8.8.8.8.4.2.8.c ",
"N 8.2.8.8.8.8.8.8.8.8.8.4.8.8.F m 8.8.8.8.8.8.8.8.8.8.8.8.8.8.8.8.8.8.8.4.2.8.c ",
"N 8.2.8.8.8.8.8.8.8.8.8.8.4.8./ 2 <.8.8.8.8.4.,.,.4.8.8.8.8.8.8.8.8.8.8.4.2.8.c ",
"N 8.2.8.8.8.8.8.8.8.8.8.8.2.8.[ o ` 8.-.8.8.8.8.8.8.4.8.8.8.8.8.8.8.8.8.4.2.8.c ",
"N 8.2.8.8.8.8.8.8.8.8.8.8.4.8.-.a . = @ & = 0 h T ,.8.4.8.8.8.8.8.8.8.8.4.2.8.c ",
"N 8.2.8.8.8.8.8.8.8.8.8.8.8.5.8.<.} _ ` Q ! E A Z @.8.<.8.8.8.8.8.8.8.8.4.2.8.c ",
"N 8.2.8.8.8.8.8.8.8.8.8.8.8.8.8.8.8.8.8.8.8.8.8.8.4.8.8.8.8.8.8.8.8.8.8.4.2.8.c ",
"N 8.2.8.8.8.8.8.8.8.8.8.8.8.8.8.4.8.8.8.8.8.8.8.8.8.8.8.8.8.8.8.8.8.8.8.4.2.8.c ",
"N 8.2.8.8.8.8.8.8.8.8.8.8.8.8.8.8.8.8.8.8.8.7.4.4.8.8.8.8.8.8.8.8.8.8.8.4.2.8.c ",
"N 8.2.8.8.8.8.8.8.8.8.8.8.8.8.8.8.8.8.8.8.8.8.8.8.8.8.8.8.8.8.8.8.8.8.8.8.2.8.c ",
"M 8.,.2.2.2.2.2.2.2.2.2.2.2.2.2.2.2.2.2.2.2.2.2.2.2.2.2.2.2.2.2.2.2.2.2.2.,.8.c ",
"B 8.8.8.8.8.8.8.8.8.8.8.8.8.8.8.8.8.8.8.8.8.8.8.8.8.8.8.8.8.8.8.8.8.8.8.8.8.8.v ",
"6 n c v v v v v v v v v v v v v v v v v v v v v v v v v v v v v v v v v c b c 8 "
};
