/* XPM */
static char *result[] = {
/* columns rows colors chars-per-pixel */
"40 40 217 2 ",
"   c #444444",
".  c #4E4E4E",
"X  c gray31",
"o  c #505050",
"O  c #535353",
"+  c #565656",
"@  c gray36",
"#  c #626262",
"$  c #6C6C6C",
"%  c #6F6F6F",
"&  c #727272",
"*  c gray45",
"=  c #767676",
"-  c #7F7F77",
";  c #797979",
":  c gray48",
">  c #7C7C7C",
",  c gray49",
"<  c #7E7E7E",
"1  c #E70013",
"2  c #E83A00",
"3  c #E84A00",
"4  c #EA6264",
"5  c #F0A812",
"6  c #F3BB45",
"7  c #F0AD61",
"8  c #FEFF43",
"9  c #FEFF51",
"0  c #FEFD6D",
"q  c #FDF972",
"w  c #FEFE74",
"e  c #FEFF76",
"r  c gray52",
"t  c gray53",
"y  c gray54",
"u  c #8D8D8D",
"i  c gray57",
"p  c #939493",
"a  c gray58",
"s  c gray59",
"d  c #979797",
"f  c #989898",
"g  c gray60",
"h  c #9A9A9A",
"j  c gray61",
"k  c #9D9D9D",
"l  c #9E9D9D",
"z  c #9F9D9D",
"x  c gray62",
"c  c #9F9E9E",
"v  c #9F9F9F",
"b  c #A0A0A0",
"n  c gray63",
"m  c #A2A2A2",
"M  c gray64",
"N  c #A4A4A4",
"B  c #A5A5A5",
"V  c gray65",
"C  c #A7A7A7",
"Z  c gray66",
"A  c #A9A9A9",
"S  c #AAAAAA",
"D  c gray67",
"F  c #ACACAC",
"G  c gray68",
"H  c #AEAEAE",
"J  c #AFAFAF",
"K  c #A5A5B8",
"L  c #B1B1B1",
"P  c #B2B2B2",
"I  c gray72",
"U  c #B9B9B9",
"Y  c #BBBBBA",
"T  c #BCBCBC",
"R  c gray",
"E  c #F2B4B1",
"W  c #FCF787",
"Q  c #FEFE80",
"!  c #FEFE84",
"~  c #FEFD8D",
"^  c #FEFD8E",
"/  c #FAE890",
"(  c #FBEE96",
")  c #FEFF92",
"_  c #FEFE95",
"`  c #FDFD96",
"'  c #FEFD96",
"]  c #FFFF96",
"[  c #FEFE97",
"{  c #FFFF99",
"}  c #FEFE9B",
"|  c #FEFE9C",
" . c #FEFCA0",
".. c #FEFDA5",
"X. c #FEFEA4",
"o. c #FEFEA6",
"O. c #FEFDA8",
"+. c #FFFFAD",
"@. c #FEFFAE",
"#. c #FFFFAE",
"$. c #FEFEB1",
"%. c #FFFFB2",
"&. c #FBFBB4",
"*. c #FFFEB5",
"=. c #FFFFB5",
"-. c #FDFDB7",
";. c #FEFEB6",
":. c #FEFEB8",
">. c #FEFBBF",
",. c #FEFDBF",
"<. c #FFFFBE",
"1. c #FEFEBF",
"2. c #F3BAC1",
"3. c #C1C1C1",
"4. c gray76",
"5. c #C4C3C4",
"6. c gray79",
"7. c #CACACA",
"8. c #CBCBCB",
"9. c #D2D2D2",
"0. c gray84",
"q. c #D7D7D7",
"w. c gray85",
"e. c #DDDDDD",
"r. c gray87",
"t. c #F4C0C4",
"y. c #F8DCD7",
"u. c #F7D4DA",
"i. c #F8D7D9",
"p. c #F8DADA",
"a. c #F8DBDC",
"s. c #F3F3C0",
"d. c #FEFEC9",
"f. c #FEFDCF",
"g. c #FEFDD0",
"h. c #FEFED0",
"j. c #FEFED2",
"k. c #FEFED6",
"l. c #FDF4D9",
"z. c #FFFFDD",
"x. c gray88",
"c. c #E1E1E1",
"v. c #E2E2E2",
"b. c #E2E3E2",
"n. c gray89",
"m. c #E4E4E4",
"M. c gray90",
"N. c #E1E1EA",
"B. c gray91",
"V. c #EAEAEA",
"C. c gray92",
"Z. c gray93",
"A. c #EEEEEE",
"S. c #EFEFEF",
"D. c #FAE2E1",
"F. c #FCEDEB",
"G. c #FAFAE0",
"H. c #FEFEE0",
"J. c LightYellow",
"K. c #FEFEE2",
"L. c #FEFEE6",
"P. c #FFFEE6",
"I. c #FBF0EF",
"U. c #FFFFE9",
"Y. c #FEFEEC",
"T. c #FFFEEF",
"R. c #FFFFEF",
"E. c gray94",
"W. c #F1F1F1",
"Q. c #F4F4F4",
"!. c gray96",
"~. c #FCF0F0",
"^. c #FCF1F1",
"/. c #FCFCF1",
"(. c ivory",
"). c #FFFFF1",
"_. c #F8F8F4",
"`. c #FEFDF4",
"'. c #FFFFF5",
"]. c #FFFFF6",
"[. c #FFFFF7",
"{. c #F0F0FB",
"}. c #FDF6F8",
"|. c #F8F8F8",
" X c gray98",
".X c #FBFBFB",
"XX c #FEFBFA",
"oX c #FBFCFB",
"OX c #FFFFF8",
"+X c #FCFCFA",
"@X c #FCFCFB",
"#X c #FDFCFB",
"$X c #FEFCFB",
"%X c #FEFDFB",
"&X c gray99",
"*X c #FDFDFC",
"=X c #FDFDFD",
"-X c #FEFDFC",
";X c #FEFCFD",
":X c #FEFDFD",
">X c #FFFFFC",
",X c #FEFEFD",
"<X c #FFFEFD",
"1X c #FFFFFD",
"2X c #FCFCFF",
"3X c #FEFDFE",
"4X c #FEFCFF",
"5X c #FEFDFF",
"6X c #FFFDFF",
"7X c #FEFEFE",
"8X c #FFFEFE",
"9X c #FEFFFE",
"0X c #FFFFFE",
"qX c #FEFEFF",
"wX c #FFFEFF",
"eX c #FEFFFF",
"rX c white",
/* pixels */
"& m x v v v v v v v v v v v v v v v v c l c v v v v v v l z v v v v v v x b k r ",
"C rXrXrXrXrXrXrXrXrXrXrXrXrXrXrXrXrXrXrXrXrXrXrXrXrXrXrXrXrXrXrXrXrXrXrXrXrXrXk ",
"V rX&X7X7X7X7X7X7X7X7X7X7X7X7X7X7X7X:X7XrXrXeX:X7X7X,X#X7XrXeX:X7X7X7X7X=X&XrXM ",
"B rX&X7X7X7X7X7X7X7X7X7X7X7X7X7X7X:XrXI.E p.rX7X7X%XrX4X2.t.:XrX:X7X7X7X7X&XrXb ",
"B rX=XrXrXrXrXrXrXrXrXrXrXrXrXrXrX:XrXF.1 3 l.rX$XwXrX(.7 2 D.rX-X8X8XrXrX=XrXn ",
"B rX=XrXrXrXrXrXrXrXrXrXrXrXrXrXrX8XrXrXu.6 W rX6X].,.) e / ~.rXrXrXrX8XrX=XrXn ",
"B rX=XrXrXrXrXrXrXrXrXrXrXrXrXrXrXrX<XrXrX%.8 f.U._ w g.@.=.rXrXy.a.8XrX7X=XrXn ",
"B rX=XrXrXrXrXrXrXrXrXrXrXrXrXrXrXrX1XwX`. .O.;.0 o.>XrX~ q >.+.5 4 ^.rX;X=XrXn ",
"B rX=XrXrXrXrXrXrXrXrXrXrXrXrXrXrXrX>XrXT.^ H.0Xk.>XrX[.$._ ..9 ( i.}.rX7X=XrXn ",
"B rX=XrXrXrXrXrXrXrXrX=XrXrXrXrXrXrX1XrXP.[ R.rXrXrXOXrXrX1X:.' '.rXrX8XrX=XrXn ",
"B rX=XrXrXrXrXrXrXrXrXrX7XrXrXrXrXrX1XrX).| 1.Y./.qXrX>XrXL.! J.5XXX8XrX8X=XrXn ",
"B rX=XrXrXrXrX9XrXrXb.S.rX=XrXrXrXrX0XrXrXz.` { #.<.K.rXrX} o.rXrX1XrXrXrX=XrXn ",
"B rX=XrXrXrXrX7XrXrX5.s rX=X7XrXrXrXrX0XrXqX>XG.s.*.] -.d.Q j.rX1XrXrXrXrX=XrXn ",
"B rX=XrXrXrXrXrXrXrXe.o  XrX=XrXrXrXrXrXrX@XrX{.K N.'.&.X.h.1XrX1XrXrXrXrX=XrXn ",
"B rX=XrXrXrXrXrX7XrXm.. M.rX.XrXrXrXrXrXrX&XrX_.- T rX2X[.0XrX0XrXrXrXrXrX=XrXn ",
"B rX=XrXrXrXrXrX7XrXM.  v.rX.XrXrXrXrXrXrX=XrX7Xg Y rX=XrXrX0XrXrXrXrXrXrX=XrXn ",
"B rX=XrXrXrXrXrX7XrXC.@ M.rX.XrXrXrXrXrXrX=XrXrXf G rX@X+X*X7XrXrXrXrXrXrX=XrXn ",
"B rX=XrXrXrXrXrX7XrXA.# x.rX.XrXrXrXrXrXrX=XrXrXa N rXrXrXrXrX7XrXrXrXrXrX=XrXn ",
"B rX=XrXrXrXrXrX7XrXZ.@ c.rX.XrXrXrXrXrXrX=XrXrXp P rXrX=XrXrXrX7XrXrXrXrX=XrXn ",
"B rX=XrXrXrXrXrX7XrXC.X r.rX|.&X.X&X7X7X7X=XrXrXC O f < t , 8.rXrX7XrXrXrX=XrXn ",
"B rX=XrXrXrXrXrX7XrXV.% !.rXrXrXrXrX7X=XwX=XrXrXN + U R 6.3.e.7XrX7XrXrXrX=XrXn ",
"B rX=XrXrXrXrXrX7XrXS.  7.7XQ.W.E..XrXrXrXrXrXrXf H rXrXrXrXrXrXrXrXrXrXrX=XrXn ",
"B rX=XrXrXrXrXrX7XrXoXS * , $ ; = = h i y q.rXrXx D rXrX3XrXrXrXrXrXrXrXrX=XrXn ",
"B rX=XrXrXrXrXrXrXrXrX7XA.w.0.v.n.9.4.L I B.rXrXN d rXrX=X7X7XrXrXrXrXrXrX=XrXn ",
"B rX=XrXrXrXrXrXrXrXrXrXrXrXrXrXrXrXrXrXrXrXrXrXb j rXrX7XrXrXrXrXrXrXrXrX=XrXn ",
"B rX=XrXrXrXrXrXrXrXrX=X=X7X7X=X=X7XrXrXrX=XrXrXb m rXrX7XrXrXrXrXrXrXrXrX=XrXn ",
"B rX=XrXrXrXrXrXrXrXrXrXrXrXrXrXrXrX7X7X7X=XrXrXZ Z rXrX7XrXrXrXrXrXrXrXrX=XrXn ",
"B rX=XrXrXrXrXrXrXrXrXrXrXrXrXrXrXrXrXrXrX=XrXrXu , rXrX=XrXrXrXrXrXrXrXrX=XrXn ",
"B rX=XrXrXrXrXrXrXrXrXrXrXrXrXrXrXrXrXrXrX7XrXrXc.q.rXrX7XrXrXrXrXrXrXrXrX=XrXn ",
"B rX=XrXrXrXrXrXrXrXrXrXrXrXrXrXrXrXrXrXrXrXrXrXrXrXrXrXrXrXrXrXrXrXrXrXrX=XrXn ",
"B rX=XrXrXrXrXrXrXrXrXrXrXrXrXrXrXrXrXrXrXrXrXrXrXrXrXrXrXrXrXrXrXrXrXrXrX=XrXn ",
"B rX=XrXrXrXrXrXrXrXrXrXrXrXrXrXrXrXrXrXrXrXrXrXrX7XrXrXrXrXrXrXrXrXrXrXrX=XrXn ",
"B rX=XrXrXrXrXrXrXrXrXrXrXrXrXrXrXrXrXrXrXrXrXrXrXrXrXrXrXrXrXrXrXrXrXrXrX=XrXn ",
"B rX=XrXrXrXrXrXrXrXrXrXrXrXrXrXrXrXrXrXrXrXrXrXrXrXrXrXrXrXrXrXrXrXrXrXrX=XrXn ",
"B rX=XrXrXrXrXrXrXrXrXrXrXrXrXrXrXrXrXrXrXrXrXrXrXrXrXrXrXrXrXrXrXrXrXrX7X=XrXn ",
"B rX=XrXrXrXrXrXrXrXrXrXrXrXrXrXrXrXrXrXrXrXrXrXrXrXrXrXrXrXrXrXrXrXrXrX9X=XrXn ",
"B rX=XrXrXrXrXrXrXrXrXrXrXrXrXrXrXrXrXrXrXrXrXrXrXrXrXrXrXrXrXrXrXrXrXrXrX=XrXn ",
"N rX.X=X=X=X=X=X=X=X=X=X=X=X=X=X=X=X=X=X=X=X=X=X=X=X=X=X=X=X=X=X=X=X=X=X&X.XrXb ",
"A rXrXrXrXrXrXrXrXrXrXrXrXrXrXrXrXrXrXrXrXrXrXrXrXrXrXrXrXrXrXrXrXrXrXrXrXrXrXM ",
": J S D D D D D D D D D D D D D D D D D D D D D D D D D D D D D D D D D D F G > "
};
