/* XPM */
static char *result[] = {
/* columns rows colors chars-per-pixel */
"40 40 117 2 ",
"   c black",
".  c #1B1B1B",
"X  c gray23",
"o  c gray27",
"O  c #4B4B4B",
"+  c gray30",
"@  c #555555",
"#  c gray35",
"$  c #5D5D5D",
"%  c #5E5E5D",
"&  c gray37",
"*  c gray39",
"=  c #686868",
"-  c gray42",
";  c #6C6C6C",
":  c #6D6D6D",
">  c gray43",
",  c #6F6F6F",
"<  c #717171",
"1  c gray45",
"2  c #747474",
"3  c #767676",
"4  c #777777",
"5  c #797979",
"6  c gray48",
"7  c #7C7C7C",
"8  c gray49",
"9  c #7E7E7E",
"0  c #7E7F7F",
"q  c gray50",
"w  c #808080",
"e  c #818281",
"r  c #838383",
"t  c #868686",
"y  c gray53",
"u  c gray54",
"i  c #8B8B8B",
"p  c gray55",
"a  c #8E8E8E",
"s  c #939393",
"d  c gray58",
"f  c #989898",
"g  c gray60",
"h  c #9A9A9A",
"j  c #9B9B9B",
"k  c gray61",
"l  c #9D9D9D",
"z  c #9D9E9D",
"x  c gray62",
"c  c #9F9F9F",
"v  c #A0A0A0",
"b  c #A2A2A2",
"n  c #A4A4A4",
"m  c gray67",
"M  c #ACACAC",
"N  c #AFAFAF",
"B  c #B1B1B1",
"V  c #B2B2B2",
"C  c gray70",
"Z  c #B6B6B6",
"A  c #B9B9B9",
"S  c #BCBCBC",
"D  c gray",
"F  c #C1C1C1",
"G  c #C3C3C3",
"H  c #C6C6C6",
"J  c #C8C8C8",
"K  c #CACACA",
"L  c #CBCACB",
"P  c #CBCBCB",
"I  c #CECECE",
"U  c gray81",
"Y  c #D0D0D0",
"T  c #D2D2D2",
"R  c LightGray",
"E  c #D3D4D3",
"W  c gray83",
"Q  c #D5D5D5",
"!  c gray84",
"~  c #D7D7D7",
"^  c #D8D8D8",
"/  c gray85",
"(  c #DADADA",
")  c gray86",
"_  c #DDDDDD",
"`  c #DFDFDF",
"'  c gray88",
"]  c #E2E2E2",
"[  c gray89",
"{  c #E4E4E4",
"}  c gray90",
"|  c #E7E7E7",
" . c gray91",
".. c #E9E9E9",
"X. c #EAEAEA",
"o. c #ECECEC",
"O. c gray93",
"+. c #EEEEEE",
"@. c #EFEFEF",
"#. c gray94",
"$. c gray95",
"%. c #F3F3F3",
"&. c gray96",
"*. c #F6F6F6",
"=. c gray97",
"-. c #F8F8F8",
";. c #F9F9F9",
":. c gray98",
">. c #FBFBFB",
",. c #FBFBFC",
"<. c gray99",
"1. c #FCFDFC",
"2. c #FDFDFD",
"3. c #FEFEFE",
"4. c #FEFFFE",
"5. c #FFFEFF",
"6. c white",
/* pixels */
"8 x x x x x x x x x x x x x x x x x x x x x x x x x x x x x x x x x x x x c k i ",
"c 6.6.6.6.6.6.6.6.6.6.6.6.6.6.6.6.6.6.6.6.6.6.6.6.6.6.6.6.6.6.6.6.6.6.6.6.6.6.g ",
"c 6.<.2.2.2.2.2.2.2.2.2.2.2.2.2.2.2.2.2.2.2.2.2.2.2.2.2.2.2.2.2.2.2.2.2.2.>.6.l ",
"c 6.3.6.6.6.6.6.6.6.6.6.6.6.6.6.6.6.6.6.6.6.6.6.6.6.6.6.6.6.6.6.6.6.6.6.6.2.6.k ",
"c 6.3.6.6.6.6.6.6.6.6.6.6.6.6.6.6.6.6.6.6.6.6.6.6.6.6.6.6.6.6.6.6.6.6.6.6.2.6.k ",
"c 6.3.6.6.6.6.6.6.6.6.6.6.6.6.6.6.6.6.6.6.6.6.6.6.6.6.6.6.6.6.6.6.6.6.6.6.2.6.k ",
"c 6.3.6.6.6.6.6.6.6.6.6.6.3.3.6.6.6.3.6.6.6.6.6.6.6.6.6.6.6.6.6.6.6.6.6.6.2.6.k ",
"c 6.3.6.6.6.6.6.6.6.6.6.6.6.6.3.6.6.6.6.3.6.6.6.6.3.6.6.6.6.6.6.6.6.6.6.6.2.6.k ",
"c 6.3.6.6.6.6.6.6.6.6.6.2.#.>.6.3.3.6.6.6.6.6.6.6.6.6.6.6.6.6.6.6.6.6.6.6.2.6.k ",
"c 6.3.6.6.6.6.6.6.6.2.6.-.9 b 6.6.6.' ` 6.2.2.2.>.2.6.6.6.6.6.6.6.6.6.6.6.2.6.k ",
"c 6.3.6.6.6.6.6.6.6.3.6.6.M + ;.6.6.J < %.6.>.6.o.Z %.6.2.6.6.6.6.6.6.6.6.2.6.k ",
"c 6.3.6.6.6.6.6.6.6.6.3.6._ 3 *.6.6.*.t L 6.<.6.R # _ 6.<.6.6.6.6.6.6.6.6.2.6.k ",
"c 6.3.6.6.6.6.6.6.6.6.3.6.Y % :.6.6.6.s D ] d w 2 - _ 6.2.6.6.6.6.6.6.6.6.2.6.k ",
"c 6.3.6.6.6.6.6.6.6.6.4.6.W $ U K ( ^ p T W 1 P S , [ 6.<.6.6.6.6.6.6.6.6.2.6.k ",
"c 6.3.6.6.6.6.6.6.6.6.3.6.)   X 5 u , o ~ 6.6.6.G r O.6.<.6.6.6.6.6.6.6.6.2.6.k ",
"c 6.3.6.6.6.6.6.6.6.3.6.6.J   I =.2.) > V C y q . & | 6.<.6.6.6.6.6.6.6.6.2.6.k ",
"c 6.3.6.6.6.6.6.6.6.3.6.6.F O 6.6.6.~ 2 Q B i / H 0 ..6.<.6.6.6.6.6.6.6.6.2.6.k ",
"c 6.3.6.6.6.6.6.6.6.6.3.6.o.7 m  .G   l 6.6.6.6. .w | 6.<.6.6.6.6.6.6.6.6.2.6.k ",
"c 6.3.6.6.6.6.6.6.6.6.5.3.6.X.g w = n &.6.<.:.6.F @ o.6.<.6.6.6.6.6.6.6.6.2.6.k ",
"c 6.3.6.6.6.6.6.6.6.6.6.3.3.6.6.} +.6.6.2.6.<.6.E B :.6.2.6.6.6.6.6.6.6.6.2.6.k ",
"c 6.3.6.6.6.6.6.6.6.6.6.6.3.<.6.6.6.6.:.<.>.:.>.>.1.6.6.6.6.6.6.6.6.6.6.6.2.6.k ",
"c 6.3.6.6.6.6.6.6.6.6.6.6.6.6.2.<.<.2.6.6.6.6.6.6.6.6.6.6.6.6.6.6.6.6.6.6.2.6.k ",
"c 6.3.6.6.6.6.6.6.6.6.6.6.6.6.3.6.6.6.>.$.O.Q ~ =.6.3.6.6.6.6.6.6.6.6.6.6.2.6.k ",
"c 6.3.6.6.6.6.6.6.6.6.6.6.3.6.6.^ w s < : ; 6 * m 3.6.2.6.6.6.6.6.6.6.6.6.2.6.k ",
"c 6.3.6.6.6.6.6.6.6.6.6.6.6.3.6.X.C N A T ~ &.! 2 { 6.<.6.6.6.6.6.6.6.6.6.2.6.k ",
"c 6.3.6.6.6.6.6.6.6.6.6.6.6.6.3.6.6.6.6.6.6.6.@.1 ^ 6.<.6.6.6.6.6.6.6.6.6.2.6.k ",
"c 6.3.6.6.6.6.6.6.6.6.6.6.6.6.6.6.6.6.6.3.;.6. .2 / 6.<.6.6.6.6.6.6.6.6.6.2.6.k ",
"c 6.3.6.6.6.6.6.6.6.6.6.6.6.6.6.6.3.3.3.6.>.6.| @ I 6.2.6.6.6.6.6.6.6.6.6.2.6.k ",
"c 6.3.6.6.6.6.6.6.6.6.6.6.6.6.6.6.6.6.6.6.>.6.[ 4 ` 6.<.6.6.6.6.6.6.6.6.6.2.6.k ",
"c 6.3.6.6.6.6.6.6.6.6.6.6.6.6.6.6.6.6.6.6.>.6.[ , ' 6.,.6.6.6.6.6.6.6.6.6.2.6.k ",
"c 6.3.6.6.6.6.6.6.6.6.6.6.6.6.6.6.6.6.6.6.<.6.*.e K 6.2.6.6.6.6.6.6.6.6.6.2.6.k ",
"c 6.3.6.6.6.6.6.6.6.6.6.6.6.6.6.6.6.6.6.6.6.3.6.o.+.6.6.6.6.6.6.6.6.6.6.6.2.6.k ",
"c 6.3.6.6.6.6.6.6.6.6.6.6.6.6.6.6.6.6.6.6.6.6.6.6.6.3.6.6.6.6.6.6.6.6.6.6.2.6.k ",
"c 6.3.6.6.6.6.6.6.6.6.6.6.6.6.6.6.6.6.6.6.6.6.6.6.6.6.6.6.6.6.6.6.6.6.6.6.2.6.k ",
"c 6.3.6.6.6.6.6.6.6.6.6.6.6.6.6.6.6.6.6.6.6.6.6.6.6.6.6.6.6.6.6.6.6.6.6.6.2.6.k ",
"c 6.3.6.6.6.6.6.6.6.6.6.6.6.6.6.6.6.6.6.6.6.6.6.6.6.6.6.6.6.6.6.6.6.6.6.6.2.6.k ",
"c 6.3.6.6.6.6.6.6.6.6.6.6.6.6.6.6.6.6.6.6.6.6.6.6.6.6.6.6.6.6.6.6.6.6.6.6.2.6.k ",
"v 6.2.3.3.3.3.3.3.3.3.3.3.3.3.3.3.3.3.3.3.3.3.3.3.3.3.3.3.3.3.3.3.3.3.3.3.<.6.l ",
"k 6.6.6.6.6.6.6.6.6.6.6.6.6.6.6.6.6.6.6.6.6.6.6.6.6.6.6.6.6.6.6.6.6.6.6.6.6.6.f ",
"a h z l l l l l l l l l l l l l l l l l l l l l l l l l l l l l l l l l l x j p "
};
