/* XPM */
static char *result[] = {
/* columns rows colors chars-per-pixel */
"32 32 222 2 ",
"   c #EB7D46",
".  c #EA7F47",
"X  c #BBAB59",
"o  c #BDA958",
"O  c #BAAE5A",
"+  c #B3B35D",
"@  c #B4B25C",
"#  c #B4B25D",
"$  c #B6B15E",
"%  c #B2B45D",
"&  c #A7BF62",
"*  c #ADB861",
"=  c #ADB862",
"-  c #AEB862",
";  c #AEB962",
":  c #ABBD62",
">  c #DD9946",
",  c #DE9846",
"<  c #D99F46",
"1  c #DA9E46",
"2  c #DA9F46",
"3  c #CD9751",
"4  c #CF9850",
"5  c #CF9851",
"6  c #CF9952",
"7  c #C99F54",
"8  c #D19550",
"9  c #D39651",
"0  c #DF9451",
"q  c #D09952",
"w  c #DD9953",
"e  c #DE9953",
"r  c #DB9A55",
"t  c #DC9A55",
"y  c #DB9C55",
"u  c #D99F55",
"i  c #D99F56",
"p  c #DB9E56",
"a  c #DC9C55",
"s  c #DD9C56",
"d  c #DD9D56",
"f  c #EA8047",
"g  c #E88346",
"h  c #E48946",
"j  c #E6884B",
"k  c #E18F4A",
"l  c #E28F4D",
"z  c #E28F4F",
"x  c #E19146",
"c  c #E1924C",
"v  c #E3944D",
"b  c #E39C55",
"n  c #E29F58",
"m  c #D5A447",
"M  c #D6A646",
"N  c #D9A146",
"B  c #D2AF46",
"V  c #D7A549",
"C  c #D7A748",
"Z  c #D8A349",
"A  c #CBBD46",
"S  c #CABE47",
"D  c #CEB74A",
"F  c #C9BB49",
"G  c #CCBA49",
"H  c #CCBB4A",
"J  c #CDB94C",
"K  c #CABF4D",
"L  c #D1B046",
"P  c #D1B04B",
"I  c #D0B44A",
"U  c #D1B14E",
"Y  c #C2A356",
"T  c #C6A054",
"R  c #C6A055",
"E  c #C7A055",
"W  c #C4A255",
"Q  c #C3A457",
"!  c #C3A557",
"~  c #C0A757",
"^  c #C1A757",
"/  c #C9A054",
"(  c #DBA056",
")  c #DAA057",
"_  c #D8A257",
"`  c #D9A257",
"'  c #D7A459",
"]  c #D5A759",
"[  c #D6A65A",
"{  c #DAA058",
"}  c #D8A258",
"|  c #D8A358",
" . c #D8A259",
".. c #D9A459",
"X. c #D4A85B",
"o. c #D5A85B",
"O. c #D4A95B",
"+. c #D4AA5B",
"@. c #D6AA5B",
"#. c #D6A95C",
"$. c #D5AA5C",
"%. c #D4AB5C",
"&. c #D5AB5C",
"*. c #D2AE5D",
"=. c #D2AE5E",
"-. c #D2AF5E",
";. c #D4AC5D",
":. c #D4AD5D",
">. c #D4AE5E",
",. c #D4AF5F",
"<. c #DFAD5D",
"1. c #DEAE5D",
"2. c #DFAE5E",
"3. c #DFAF5E",
"4. c #DEAE5F",
"5. c #DEAF5F",
"6. c #D1B05F",
"7. c #D2B05E",
"8. c #D3B05F",
"9. c #D0B25F",
"0. c #D1B25F",
"q. c #D1B35F",
"w. c #D2B25F",
"e. c #DEB05F",
"r. c #DFB05F",
"t. c #E3A058",
"y. c #E0A259",
"u. c #E1A359",
"i. c #E1A459",
"p. c #E2A559",
"a. c #E2A55A",
"s. c #E0A95B",
"d. c #E0B05E",
"f. c #CFB561",
"g. c #CFB661",
"h. c #CFB562",
"j. c #CEB662",
"k. c #CFB662",
"l. c #CEB762",
"z. c #CEB763",
"x. c #CFB862",
"c. c #CEB962",
"v. c #CEB963",
"b. c #CDBA63",
"n. c #CBBE65",
"m. c #C9BE67",
"M. c #C9BF67",
"N. c #CABE66",
"B. c #CABE67",
"V. c #CBBE67",
"C. c #CABF67",
"Z. c #D2B160",
"A. c #D0B260",
"S. c #D1B360",
"D. c #DEB461",
"F. c #DEB462",
"G. c #DDB763",
"H. c #DCBB63",
"J. c #DCBB64",
"K. c #DDBB64",
"L. c #BADC47",
"P. c #BBDC47",
"I. c #BBD548",
"U. c #BAD749",
"Y. c #BCD649",
"T. c #BBDB49",
"R. c #BCDB49",
"E. c #BED94B",
"W. c #BADF4A",
"Q. c #B7E447",
"!. c #B6E647",
"~. c #B8E047",
"^. c #BAE047",
"/. c #B5E847",
"(. c #B5E947",
"). c #B7E448",
"_. c #B7E548",
"`. c #B8E048",
"'. c #B9E048",
"]. c #B9E148",
"[. c #B9E149",
"{. c #B8E348",
"}. c #A4C263",
"|. c #C1CE47",
" X c #C8C14F",
".X c #C1CA49",
"XX c #C3CB49",
"oX c #C0C94A",
"OX c #C2CE48",
"+X c #C3CE49",
"@X c #C2CF49",
"#X c #C5CC48",
"$X c #C1D348",
"%X c #C0D448",
"&X c #C0D34E",
"*X c #C1D34E",
"=X c #C8C067",
"-X c #C9C067",
";X c #C9C167",
":X c #C9C368",
">X c #C6CA6D",
",X c #C2CD6C",
"<X c #C3CF6D",
"1X c #C4CD6D",
"2X c #C5CD6E",
"3X c #DAC167",
"4X c #D8C76A",
"5X c #D9C76D",
"6X c #D8C86C",
"7X c #D9C86C",
"8X c #D8CA6D",
"9X c #C1D16E",
"0X c #C0D36F",
"qX c #C0D470",
"wX c #D6D474",
"eX c #D3D973",
"rX c #D4D873",
"tX c #D5D873",
"yX c #D5D874",
"uX c #D6D875",
"iX c #D4DA74",
"pX c #D2E077",
/* pixels */
"qXqXqXqXqXqXqXqXqXqXqXqXqXqXqXqXqXqXqXqXqXqXqXqXqXqXqXqXqXqXqXqX",
"qXqXqXqXqXqXqXqXqXqXqXqXqXqXqXqXqXqXqXqXqXqXqXqXqXqXqXqXqXqXqXqX",
"qXqXqXqXqXqXqXqXqXqXqXqXqXqXqXqXqXqXqXqXqXqX}.}.}.}.}.qXqXqXqXqX",
"qXqXqX}.}.}.}.qXqXqXqXqX,XB.g.6.w.k.-X,X}.}.}.}.}.}.}.}.qXqXqXqX",
"qXqX}.}.}.}.}.}.}.qXB.%.d ..O.>.8.+.| 8 / + }.}.}.}.}.}.qXqXqXqX",
"qXqX}.}.}.}.}.}.= E { 9.2XqXqXqXqXqXqX: ~ q 7 - }.}.}.}.qXqXqXqX",
"qXqX}.}.}.}.}.# 5 Y qXqXqXqXqX0 0 qXqXqX}.}.Q 6 # }.}.qXqXqXqXqX",
"qXqX}.}.}.}.+ 9 X }.qXqXqXqX:XZ V :XqXqXqXqXqXb.y m.qXqXqXqXqXqX",
"qXqXqX}.}.* 4 O }.qXqXqXqXqXa T.R.a qXqXqXqXqXqXl.p ; }.}.qXqXqX",
"qXqXqXqXqX] :.qXqXqXqXqXqX:XC ].^.C % }.}.}.qXqXqX! T }.}.}.qXqX",
"qXqXqXqXC.( qXqXqX}.}.}.}.) E.M M U.6 }.}.}.}.qXqX}.3 $ }.}.qXqX",
"qXqXqXqX@.q.qXqX}.& @ o W < ].    ~.< W o @ & qXqXqX^ R }.qXqXqX",
"qXqXqX,Xd ' e j . h m F oXY.M     M I..XF m h f j e ' y ,XqXqXqX",
"qXqXqX=X_ qXo.G (.L.|.S B N         N B A OXP.(.G o.qX..V.qXqXqX",
"qXqXqXl.&.qXqXo.D `.x                     x '.D o.qXqXX.h.qXqXqX",
"qXqXqXZ.8.qXqXqXo.I _.,                 , Q.I o.qXqXqX*.Z.qXqXqX",
"qXqXqX6.>.qXqXqXqXo.P /.2             2 /.P o.qXqXqXqX-.A.qXqXqX",
"qXqXqXj.$.qXqXqXqXqXo.U #X            XXU o.qXqXqXqXqX#.z.qXqXqX",
"qXqXqXV. .qXqXqXqXqXf. XL             L  Xf.qXqXqXqXqX} C.qXqXqX",
"qXqXqXeXt.yXpXpXqXqX[ *X>     > >     > &X[ pXpXpXpXyXr ,XqXqXqX",
"qXqXpXpX5.H.pXpXpXqXw ].g > $XW.W.%X> g [.b pXpXpXpXK.r.pXqXqXqX",
"qXqXpXpX7Xa.pXpXpXqXc !.+X[.J z z J [.@X!.v pXpXpXpXa.6XpXpXqXqX",
"qXqXqXpXpX2.D.pXqX1X1 {.K l =.0X0X=.l K ).1 tXpXpXF.d.pXpXpXqXqX",
"qXqXqXqXqX>Xi x.qXn.H k ;.9XqXqXqXqX9X;.k H 4XpX3Xu.wXpXpXqXqXqX",
"qXqXqXqXqXqX;Xs v.G.e.iXpXqXqXqXqXqXqXqX<X$.7.c.t -XqXqXqXqXqXqX",
"qXqXqXqXqXqXqX8Xy.3.pXpXpXpXqXqXqXqXqXpXpXpX1.u =XqXqXqXqXqXqXqX",
"qXqXqXqXqXqXqXpXwX2.p.K.uXpXqXqXqXqXpXyXJ.i.<.wXqXqXqXqXqXqXqXqX",
"qXqXpXpXpXqXqXqXpXpX5X4.t.` &.8.,.$.s.n 5.6XpXpXqXqXqXqXqXqXqXqX",
"qXpXpXpXpXpXqXqXqXqXqXqX,XM.z.S.0.l.N.rXpXpXpXqXqXqXqXqXqXqXqXqX",
"qXpXpXpXpXpXqXqXqXqXqXqXqXqXqXqXqXqXqXqXqXqXqXqXqXqXqXqXqXqXqXqX",
"qXqXpXpXpXqXqXqXqXqXqXqXqXqXqXqXqXqXqXqXqXqXqXqXqXqXqXqXqXqXqXqX",
"qXqXqXqXqXqXqXqXqXqXqXqXqXqXqXqXqXqXqXqXqXqXqXqXqXqXqXqXqXqXqXqX"
};
