/* XPM */
static char *result[] = {
/* columns rows colors chars-per-pixel */
"32 32 12 1 ",
"  c #90625D",
". c #AA7959",
"X c #B09643",
"o c #BFA954",
"O c #C49A6C",
"+ c #A4C263",
"@ c #D4C169",
"# c #C0D470",
"$ c #D2E077",
"% c #EAE178",
"& c #DCB98A",
"* c #F4F4A0",
/* pixels */
"################################",
"################################",
"######################+++++#####",
"###++++#############++++++++####",
"##+++++++##########+++++++++####",
"##++++++++#########+++++++++####",
"##++++++++##########+++++++#####",
"##++++++++######################",
"###++++++#################+++###",
"##################++++###+++++##",
"#########  ++####++++  ##+++++##",
"######## @@          @@ ##+++###",
"####### %%%O&&&&&&&&O%%% #######",
"####### %%OOOO&&&&OOOO%% #######",
"####### %%OOOOOOOOOOOO%% #######",
"####### %%OOOOOOOOOOOO%% #######",
"####### *%%%%%%%%%%%%%%* #######",
"####### X**************X #######",
"####### oX     %@     Xo #######",
"###$$$$ oo.....@@.....oo $$#####",
"##$$$$$ @o............o@ $$$$###",
"##$$$$$$ @@@@@@@@@@@@@@ $$$$$$##",
"###$$$$$#              $$$$$$$##",
"######################$$$$$$$###",
"#########$$$$###################",
"#######$$$$$$$#####$$$$#########",
"#######$$$$$$$####$$$$$$########",
"##$$$###$$$$$#####$$$$$$########",
"#$$$$$#############$$$$#########",
"#$$$$$##########################",
"##$$$###########################",
"################################"
};
