/* XPM */
static char *result[] = {
/* columns rows colors chars-per-pixel */
"32 32 158 2 ",
"   c #787F77",
".  c #767C7A",
"X  c #798177",
"o  c #778278",
"O  c #82837F",
"+  c #868A7E",
"@  c #8B8F7A",
"#  c #8C9A75",
"$  c #959B7B",
"%  c #99B268",
"&  c #9CA675",
"*  c #9DA678",
"=  c #A2AC7A",
"-  c #A6B376",
";  c #A8B476",
":  c #ADBB75",
">  c #A6B179",
",  c #AAB37A",
"<  c #A4C263",
"1  c #B4C473",
"2  c #B7C973",
"3  c #BACC72",
"4  c #BCC779",
"5  c #BFD370",
"6  c #C1CB7A",
"7  c #C0D470",
"8  c #CCD878",
"9  c #D1DF77",
"0  c #D2E077",
"q  c #EDE36F",
"w  c #EEE578",
"e  c #FCF47A",
"r  c #4A3A8A",
"t  c #52448C",
"y  c #584D8B",
"u  c #5E548A",
"i  c #524391",
"p  c #5C4D96",
"a  c #5E5094",
"s  c #61558D",
"d  c #655C89",
"f  c #635694",
"g  c #655699",
"h  c #655899",
"j  c #68599D",
"k  c #6A6186",
"l  c #6C6980",
"z  c #6C648D",
"x  c #757284",
"c  c #797487",
"v  c #7D7B82",
"b  c #7C788A",
"n  c #7B719C",
"m  c #5D53A8",
"M  c #6B5CA4",
"N  c #6B62A8",
"B  c #736AA9",
"V  c #786FA9",
"C  c #7D75B0",
"Z  c #827D8C",
"A  c #8378A8",
"S  c #877AB1",
"D  c #887BB0",
"F  c #898781",
"G  c #858881",
"H  c #8B8E82",
"J  c #86828B",
"K  c #91918B",
"L  c #9C9B88",
"P  c #8B8797",
"I  c #908E90",
"U  c #9D8D9B",
"Y  c #A2988E",
"T  c #8D84A1",
"R  c #8F87AB",
"E  c #9086A2",
"W  c #9389A1",
"Q  c #9F87AA",
"!  c #928BAF",
"~  c #9E96A6",
"^  c #8D81B2",
"/  c #978CB0",
"(  c #998FB1",
")  c #9C92B4",
"_  c #A78FAE",
"`  c #A498AC",
"'  c #BE94A9",
"]  c #AAA4AD",
"[  c #A9A2B4",
"{  c #AFA9B3",
"}  c #ABA5B9",
"|  c #B3AEB5",
" . c #B6B3B6",
".. c #BFB8B6",
"X. c #C09EAC",
"o. c #C2BCB4",
"O. c #C8BCB7",
"+. c #CBB4BA",
"@. c #E8ABA9",
"#. c #E9B1AA",
"$. c #ECBEAF",
"%. c #F0B3AB",
"&. c #F1B9AD",
"*. c #C8C08F",
"=. c #D0C681",
"-. c #E7E089",
";. c #F2EC8A",
":. c #E8E294",
">. c #F6F19D",
",. c #C5C1B5",
"<. c #CDC9B5",
"1. c #C6C3B8",
"2. c #CECAB9",
"3. c #D7D4B6",
"4. c #DEDCB9",
"5. c #EDC7B1",
"6. c #F3C6B1",
"7. c #F1CEB4",
"8. c #E0DEBD",
"9. c #F9DEB9",
"0. c #FBF9A5",
"q. c #E4E2BB",
"w. c #E8E6BD",
"e. c #EEECBE",
"r. c #FFE7BB",
"t. c #F2ECBE",
"y. c #F4F3BF",
"u. c #FBF3BF",
"i. c #FDFCBE",
"p. c #9A8BC8",
"a. c #B1A7C6",
"s. c #B5ABCB",
"d. c #B9B0C7",
"f. c #BFB4D7",
"g. c #C3BDC0",
"h. c #C0B6CE",
"j. c #D5D3C4",
"k. c #DBD9C0",
"l. c #D2C9D9",
"z. c #DDD5DF",
"x. c #FBDFC8",
"c. c #EDEAC7",
"v. c #E8E3CF",
"b. c #F8E6C5",
"n. c #FFE6CA",
"m. c #F4F3C0",
"M. c #F8F7C1",
"N. c #F7F9C1",
"B. c #FDFCC3",
"V. c #FFFECA",
"C. c #E7E3D0",
"Z. c #E9E4D0",
"A. c #EDEAD3",
"S. c #FFFDDA",
"D. c #DDD4E0",
"F. c #E6DEE4",
"G. c #F6F0E4",
"H. c #F8F2E4",
/* pixels */
"7 7 7 7 7 5 7 7 7 7 7 7 7 3 7 7 7 7 7 7 7 7 7 5 7 7 5 7 7 7 7 7 ",
"7 7 7 7 7 7 7 1 : : : : 2 7 7 7 7 7 7 1 : : : : 1 7 5 5 7 7 7 7 ",
"7 7 7 5 7 7 7 G y d u s $ 7 7 7 7 7 7 $ s u u u   < < 5 5 7 7 7 ",
"7 7 7 < < % # P ) / / / I = 3 7 7 3 = I ! ( ! ) P # % < 7 7 7 7 ",
"7 7 < < < X f o.N.m.m.m.` s = 7 7 * f ` m.m.c.y...f X < 7 7 7 7 ",
"7 7 < < < . j +.r.9.m.B.| i l @ O . i { B.u.r.r.O.M   < 7 7 7 7 ",
"7 7 < < < o g ' &.#.7.y.] a p g g p a ] m.7.@.&.' f o 5 7 7 7 7 ",
"7 7 < < < X g ' %.@.5.y.j.a.s.s.s.a.a.j.u.5.@.%.X.f + 7 7 7 7 7 ",
"7 7 7 < < o f X.6.$.7.t.A.F.F.F.F.F.F.A.y.7.$.6.X.g o < < 7 7 7 ",
"7 7 7 7 7 + g o.u.t.t.y.C.F.D.D.z.F.D.C.y.t.t.M.+.g   < < < 7 7 ",
"7 7 5 7 7 + h 1.B.N.M.y.C.l.D.z.z.z.D.C.y.y.N.B.o.h o < < < 7 7 ",
"7 7 5 7 7 + h ,.B.M.y.y.C.D.z.z.z.z.D.v.y.y.N.B.O.h   < < 5 7 7 ",
"7 7 5 : H d f o.B.B.i.y.c.C.C.C.C.C.C.c.y.i.B.B.o.f d H : 7 7 7 ",
"7 7 5 = f p f o.B.m.e.y.y.y.y.y.t.y.y.y.y.c.t.B.o.f p f = 7 7 7 ",
"7 7 7 3 > x h 2.w.T ~ c.N.y.y.y.y.y.y.i.e.~ E w.<.f c > 3 7 7 7 ",
"7 7 7 5 2 v h 2.q.n T e.B.m.m.y.m.m.m.N.e.T n q.2.g . 2 5 7 7 7 ",
"7 7 7 = z i f ,.N.4.4.m.m.m.m.m.m.m.m.m.m.4.4.M.o.f t z = 7 7 7 ",
"7 7 7 ; c y j O.B.V.B.N.M.M.M.M.m.M.M.m.M.V.V.B.O.j p b ; 7 7 7 ",
"7 7 5 5 7 G j +.n.x.b.m.M.M.M.M.M.M.M.M.N.b.b.n.+.j X 7 7 7 7 7 ",
"7 7 5 9 9 4 L U _ Q _ |  .| | } [ { |  .| _ Q _ U L 4 7 7 7 7 7 ",
"7 7 0 0 9 0 8 Z g p j B B B B V V V B B N j a h Z 8 0 0 0 7 7 7 ",
"7 7 0 0 9 , J ) d.o.~ N m N Y *.<.} N m N ` ..d.) J , 0 0 0 7 7 ",
"7 7 7 0 9 F M f.H.V.4.! C R =.e 0.3.! C ! 4.V.H.h.M F 0 0 0 7 7 ",
"7 7 7 7 5 G M f.H.V.N.k.4.8.-.q w :.4.k.8.y.V.G.h.M F 0 0 7 7 7 ",
"7 7 7 7 7 * b ) h...3.i.B.i.>.;.;.>.B.B.B.3...h.p.b * 7 7 7 7 7 ",
"7 7 7 7 7 7 2 Z M p W e.B.m.y.y.y.u.y.B.t.P p M b 2 7 7 7 7 7 7 ",
"7 7 7 7 7 7 5 , v r ^ Z.S.A.g.[ [ 1.A.S.C.^ r c = 7 7 7 5 7 7 7 ",
"7 7 0 0 0 7 7 7 6 k D l.F.l.A t t A l.F.l.D z 6 7 7 7 7 7 7 7 7 ",
"7 0 0 0 0 9 7 7 5 ; K S p.A K & & K S p.S K 4 7 7 7 5 7 7 7 7 7 ",
"7 0 0 0 0 0 7 5 7 7 ; k y k - 7 5 - k y k - 7 7 5 7 7 7 7 7 7 7 ",
"7 7 0 0 0 7 7 7 7 7 5 : : : 3 7 5 3 : : : 5 7 7 7 7 7 7 7 7 7 7 ",
"7 7 7 7 7 7 7 7 7 5 5 7 7 7 7 5 5 5 5 5 7 7 5 7 7 7 7 7 7 7 7 7 "
};
