/* XPM */
static char *result[] = {
/* columns rows colors chars-per-pixel */
"32 32 13 1 ",
"  c #5F7A79",
". c #90625D",
"X c #AA7959",
"o c #6E967C",
"O c #C49A6C",
"+ c #A4C263",
"@ c #B3C373",
"# c #C3CD79",
"$ c #C0D470",
"% c #D2E077",
"& c #97BB8E",
"* c #AED499",
"= c #C2E09A",
/* pixels */
"$$$$$$$$$$$$$$$$$$$$$$$$$$$$$$$$",
"$$$$$$$$$$$$$$$$$$$$$$$$$$$$$$$$",
"$$$$$$$$$$$$$      $$$+++++$$$$$",
"$$$++++$$$$  &****&  +++++++$$$$",
"$$+++++++$ &**==****& ++++++$$$$",
"$$++++++++ &**==*==*& ++++++$$$$",
"$$+++++++ &*===**===*& ++++$$$$$",
"$$+++++++ &*===***==*& $$$$$$$$$",
"$$$++++++ ******==***& $$$+++$$$",
"$$$$$$$$$ &**********& $$+++++$$",
"$$$$$$$$$ &**********& $$+++++$$",
"$$$$$$$$+ &&**&&**&*&& $$$+++$$$",
"$$$$$$$$++ &&***&&&&&& $$$$$$$$$",
"$$$$$$$$$+ &&&&&&**&&& $$$$$$$$$",
"$$$$$$$$$ &&**&&&&&&& $$$$$$$$$$",
"$$$$$$$$$ o&&&&&&&&&&o $$$$$$$$$",
"$$$$$$$$$ o&&&&&&&&&&o $$$$$$$$$",
"$$$$$$$$$ ooo&&oo&&ooo $$$$$$$$$",
"$$$$$$$$$ o&&o&oooo&&o $$$$$$$$$",
"$$$%%%%%$ oooooo&&oooo %%%%$$$$$",
"$$%%%%%%%$ oooooooooo %%%%%%%$$$",
"$$%%%%%%%$ oooooooooo %%%%%%%%$$",
"$$$%%%%%$$$          %%%%%%%%%$$",
"$$$$$$$$$$$$$.XXXX.$$$%%%%%%%$$$",
"$$$$$$$$$%%%%.OXOX.$$$$$$$$$$$$$",
"$$$$$$$%%%%%%.OOOO.%%%%$$$$$$$$$",
"$$$$$$$%%%%##.OOOO.##%%%$$$$$$$$",
"$$%%%$$$%%##.OOOOOO.##%%$$$$$$$$",
"$%%%%%$$$$@@@@OOOO@###%$$$$$$$$$",
"$%%%%%$$$$$@@@@O@@@@@$$$$$$$$$$$",
"$$%%%$$$$$$$$$$$$$$$$$$$$$$$$$$$",
"$$$$$$$$$$$$$$$$$$$$$$$$$$$$$$$$"
};
